<svg xmlns="http://www.w3.org/2000/svg" viewBox="0 0 512 512">
  <path fill="#00897b" d="M505.04 0H297.6c-3.6 0-6.56 2.96-6.56 6.56v124.8c0 3.6 2.96 6.56 6.56 6.56h207.44c3.6 0 6.56-2.96 6.56-6.56V6.56c0-3.6-2.96-6.56-6.56-6.56zM214.4 0H6.56C2.96 0 0 2.96 0 6.56v124.8c0 3.6 2.96 6.56 6.56 6.56h207.84c3.6 0 6.56-2.96 6.56-6.56V6.56c0-3.6-2.96-6.56-6.56-6.56zM6.56 512H214.4c3.6 0 6.56-2.96 6.56-6.56V380.64c0-3.6-2.96-6.56-6.56-6.56H6.56c-3.6 0-6.56 2.96-6.56 6.56v124.8c0 3.6 2.96 6.56 6.56 6.56zM297.6 512h207.44c3.6 0 6.56-2.96 6.56-6.56V380.64c0-3.6-2.96-6.56-6.56-6.56H297.6c-3.6 0-6.56 2.96-6.56 6.56v124.8c0 3.6 2.96 6.56 6.56 6.56z"/>
  <path fill="#00897b" d="M256 137.92c-65.28 0-118.08 52.8-118.08 118.08S190.72 374.08 256 374.08 374.08 321.28 374.08 256 321.28 137.92 256 137.92zm0 196.8c-43.52 0-78.72-35.2-78.72-78.72s35.2-78.72 78.72-78.72 78.72 35.2 78.72 78.72-35.2 78.72-78.72 78.72z"/>
</svg>