<svg xmlns="http://www.w3.org/2000/svg" viewBox="0 0 2228.833 2073.333" width="100" height="100">
  <path fill="#5059C9" d="M1554.637 777.5h575.713c54.391 0 98.483 44.092 98.483 98.483v524.398c0 199.901-162.051 361.952-361.952 361.952h-1.711c-199.901.028-361.975-162-362.004-361.901V828.971c.001-28.427 23.045-51.471 51.471-51.471z"/>
  <circle fill="#5059C9" cx="1943.75" cy="440.583" r="233.25"/>
  <circle fill="#7B83EB" cx="1218.083" cy="336.917" r="336.917"/>
  <path fill="#7B83EB" d="M1667.323 777.5H717.01c-53.743 1.33-96.257 45.931-95.01 99.676v598.105c-7.505 322.519 247.657 590.16 570.167 598.053 322.51-7.893 577.672-275.534 570.167-598.053V877.176c1.245-53.745-41.268-98.346-95.011-99.676z"/>
  <path opacity=".1" d="M1244 777.5v838.145c-.258 38.435-23.549 72.964-59.09 87.598-11.316 4.787-23.478 7.254-35.765 7.257H667.613c-6.738-17.105-12.958-34.21-18.142-51.833-18.144-59.477-27.402-121.307-27.472-183.49V877.02c-1.246-53.659 41.198-98.19 94.855-99.52H1244z"/>
  <path opacity=".2" d="M1192.167 777.5v889.978c-.132 10.283-1.862 20.471-5.107 30.198-2.56 7.664-6.048 14.966-10.393 21.752-4.627 7.145-10.294 13.576-16.802 19.062-6.546 5.499-13.935 9.964-21.896 13.253-9.363 3.88-19.297 6.128-29.393 6.643-.839.034-1.678.051-2.517.051H631.129c-11.88-18.883-22.596-38.384-32.073-58.394-23.531-49.754-40.252-102.402-49.792-156.512-3.743-21.288-6.407-42.761-8.014-64.316-.839-11.247-1.275-22.528-1.275-33.842V877.02c-1.246-53.659 41.198-98.19 94.855-99.52H1192.167z"/>
  <path opacity=".2" d="M1192.167 777.5v786.943c-.005 15.334-2.507 30.556-7.434 45.011-4.357 12.823-10.818 24.855-19.175 35.655-7.527 9.684-16.522 18.023-26.661 24.734-10.252 6.773-21.573 11.962-33.5 15.359-12.993 3.703-26.47 5.551-40.001 5.465H614.921c-25.21-29.188-47.038-61.2-65.223-95.586-21.666-40.911-38.048-84.316-48.741-129.189-10.693-44.874-15.34-91.006-13.849-137.168V877.02c-1.246-53.659 41.198-98.19 94.855-99.52H1192.167z"/>
  <path opacity=".2" d="M1140.333 777.5v786.943c-.005 15.334-2.507 30.556-7.434 45.011-4.357 12.823-10.818 24.855-19.175 35.655-7.527 9.684-16.522 18.023-26.661 24.734-10.252 6.773-21.573 11.962-33.5 15.359-12.993 3.703-26.47 5.551-40.001 5.465H563.087c-25.21-29.188-47.038-61.2-65.223-95.586-21.666-40.911-38.048-84.316-48.741-129.189-10.693-44.874-15.34-91.006-13.849-137.168V877.02c-1.246-53.659 41.198-98.19 94.855-99.52H1140.333z"/>
  <path opacity=".2" d="M1088.5 777.5v684.645c-.132 10.283-1.862 20.471-5.107 30.198-2.56 7.664-6.048 14.966-10.393 21.752-4.627 7.145-10.294 13.576-16.802 19.062-6.546 5.499-13.935 9.964-21.896 13.253-9.363 3.88-19.297 6.128-29.393 6.643-.839.034-1.678.051-2.517.051H527.462c-11.88-18.883-22.596-38.384-32.073-58.394-23.531-49.754-40.252-102.402-49.792-156.512-3.743-21.288-6.407-42.761-8.014-64.316-.839-11.247-1.275-22.528-1.275-33.842V877.02c-1.246-53.659 41.198-98.19 94.855-99.52H1088.5z"/>
  <linearGradient id="a" gradientUnits="userSpaceOnUse" x1="198.099" y1="1683.0726" x2="942.234" y2="394.2326" gradientTransform="matrix(1 0 0 -1 0 2075.3333)">
    <stop offset="0" stop-color="#5a62c3"/>
    <stop offset=".5" stop-color="#4d55bd"/>
    <stop offset="1" stop-color="#3940ab"/>
  </linearGradient>
  <path fill="url(#a)" d="M95.01 777.5h950.312c52.473 0 95.01 42.538 95.01 95.01v950.312c0 52.473-42.538 95.01-95.01 95.01H95.01c-52.473 0-95.01-42.538-95.01-95.01V872.51c0-52.472 42.538-95.01 95.01-95.01z"/>
  <path fill="#FFF" d="M820.211 1318.768H428.672v-188.533h391.539c23.439 0 42.43 19.007 42.43 42.447v103.623c0 23.456-18.991 42.463-42.43 42.463z"/>
  <path fill="#FFF" d="M428.672 1011.223h391.539c23.439 0 42.43 19.007 42.43 42.447v103.623c0 23.456-18.991 42.463-42.43 42.463H428.672v-188.533z"/>
  <path fill="#FFF" d="M428.672 1011.223v188.533H313.304c-23.439 0-42.447-19.007-42.447-42.463v-103.623c0-23.439 19.007-42.447 42.447-42.447h115.368z"/>
  <path fill="#FFF" d="M313.304 1318.768h115.368v-188.533H313.304c-23.439 0-42.447 19.007-42.447 42.447v103.623c0 23.456 19.007 42.463 42.447 42.463z"/>
</svg>