<svg xmlns="http://www.w3.org/2000/svg" viewBox="0 0 24 24" width="100" height="100">
  <path fill="#4A154B" d="M6 15a2 2 0 0 1-2 2 2 2 0 0 1-2-2 2 2 0 0 1 2-2h2v2zm1 0a2 2 0 0 1 2-2 2 2 0 0 1 2 2v5a2 2 0 0 1-2 2 2 2 0 0 1-2-2v-5z"/>
  <path fill="#4A154B" d="M9 6a2 2 0 0 1-2-2 2 2 0 0 1 2-2 2 2 0 0 1 2 2v2H9zm0 1a2 2 0 0 1 2 2 2 2 0 0 1-2 2H4a2 2 0 0 1-2-2 2 2 0 0 1 2-2h5z"/>
  <path fill="#4A154B" d="M18 9a2 2 0 0 1 2 2 2 2 0 0 1-2 2 2 2 0 0 1-2-2V9h2zm-1 0a2 2 0 0 1-2-2 2 2 0 0 1 2-2 2 2 0 0 1 2 2v5a2 2 0 0 1-2 2 2 2 0 0 1-2-2V9z"/>
  <path fill="#4A154B" d="M15 18a2 2 0 0 1 2 2 2 2 0 0 1-2 2 2 2 0 0 1-2-2v-2h2zm0-1a2 2 0 0 1-2-2 2 2 0 0 1 2-2h5a2 2 0 0 1 2 2 2 2 0 0 1-2 2h-5z"/>
</svg>