<svg xmlns="http://www.w3.org/2000/svg" viewBox="0 0 512 512" fill="#00bceb">
  <path d="M267.1 243.9c0 30.3-24.5 54.8-54.8 54.8s-54.8-24.5-54.8-54.8 24.5-54.8 54.8-54.8 54.8 24.5 54.8 54.8zm54.8 0c0-60.5-49-109.5-109.5-109.5S103 183.4 103 243.9s49 109.5 109.5 109.5 109.4-49 109.4-109.5zm54.8 0c0 90.8-73.6 164.3-164.3 164.3S48.2 334.7 48.2 243.9 121.7 79.6 212.4 79.6s164.3 73.5 164.3 164.3zm54.8 0c0-121-98.1-219.1-219.1-219.1S-6.5 122.9-6.5 243.9 91.5 463 212.4 463s219.1-98.1 219.1-219.1z"/>
</svg>