<svg xmlns="http://www.w3.org/2000/svg" viewBox="0 0 512 512">
  <path fill="#2d8cff" d="M488 261.8C488 403.3 391.1 504 248 504 110.8 504 0 393.2 0 256S110.8 8 248 8c66.8 0 123 24.5 166.3 64.9l-67.5 64.9C258.5 52.6 94.3 116.6 94.3 256c0 86.5 69.1 156.6 153.7 156.6 98.2 0 135-70.4 140.8-106.9H248v-85.3h236.1c2.3 12.7 3.9 24.9 3.9 41.4z"/>
  <path fill="#2d8cff" d="M457.6 140.2l-31.4 31.4c-9.4-9.4-19.6-17.7-30.7-25.1l31.4-31.4c10.8 7.5 21 16 30.7 25.1zM311.1 77.5l-31.4 31.4c-11.1-5.9-22.9-10.7-35.3-14.3l31.4-31.4c12.4 3.6 24.2 8.4 35.3 14.3zM206.7 66.1l-31.4 31.4c-12.4-1.7-25.1-2.5-38-2.5v-44.4c12.9 0 25.6.8 38 2.5zM106.3 77.5l31.4 31.4c-12.4 3.6-24.2 8.4-35.3 14.3l-31.4-31.4c11.1-5.9 22.9-10.7 35.3-14.3zM54.4 140.2l31.4 31.4c-9.4 9.4-17.7 19.6-25.1 30.7l-31.4-31.4c7.5-10.8 16-21 25.1-30.7z"/>
</svg>